<svg xmlns="http://www.w3.org/2000/svg" viewBox="0 0 110 110"><defs><style>.cls-1{fill:#fff}.cls-2{fill:#f04b38}</style></defs><title>logo_sirkel</title><g id="Layer_2" data-name="Layer 2"><g id="Isolation_Mode" data-name="Isolation Mode"><circle class="cls-1" cx="55" cy="55" r="55"/><path class="cls-2" d="M55,93.19A38.19,38.19,0,1,1,93.19,55,38.19,38.19,0,0,1,55,93.19ZM55,15A40,40,0,1,0,95,55,40,40,0,0,0,55,15Z"/><path class="cls-2" d="M55,90A35,35,0,1,1,90,55,35,35,0,0,1,55,90Zm0-71.84A36.82,36.82,0,1,0,91.82,55,36.83,36.83,0,0,0,55,18.18Z"/><path class="cls-2" d="M55,86.84A31.84,31.84,0,1,1,86.84,55,31.84,31.84,0,0,1,55,86.84Zm0-65.49A33.65,33.65,0,1,0,88.65,55,33.65,33.65,0,0,0,55,21.35Z"/><circle class="cls-2" cx="68.5" cy="60.33"/><path class="cls-2" d="M41,52.71a20.93,20.93,0,0,0,7.75,4.15c2.91,1,8.9,2.57,10.55,3.2a18.05,18.05,0,0,1,3.78,1.81,3.73,3.73,0,0,1,1.9,3.5,3.91,3.91,0,0,1-.53,2c-1,1.77-4,3.71-9,3.72a17.51,17.51,0,0,1-9.83-2.95,26.44,26.44,0,0,1-3-2.31l-1.07,1.45a28.39,28.39,0,0,0,3.08,2.37,19.56,19.56,0,0,0,10.82,3.24c4.2,0,7.3-1.26,9.18-3a6,6,0,0,0,2.13-4.85,5.51,5.51,0,0,0-2.59-4.62,18.2,18.2,0,0,0-4.29-2.08c-2.61-1-7.75-2.2-11.35-3.49a17.08,17.08,0,0,1-6.87-4A9.45,9.45,0,0,1,39.12,44,10.62,10.62,0,0,1,44,35.45c3.74-2.51,8.13-2.85,10.73-2.86a24.06,24.06,0,0,1,7.83,1.28A21.45,21.45,0,0,1,69,37.32L70,35.87a23,23,0,0,0-5.81-3.31,26.21,26.21,0,0,0-9.53-1.79c-2.37,0-7.48.24-11.85,3.24h0a12.38,12.38,0,0,0-5.54,10A11.35,11.35,0,0,0,41,52.71Z"/><path class="cls-2" d="M71.12,58.54c-1.32-1.94-3.73-4.12-8.05-5.77-4-1.53-8.41-2.45-12.39-3.87-.85-.3-3.88-1.38-4.74-2.88a3.16,3.16,0,0,1-.48-1.76,4.46,4.46,0,0,1,2.63-3.9,14.39,14.39,0,0,1,6.6-1.42,17.68,17.68,0,0,1,7.24,1.51,13.56,13.56,0,0,1,3.25,2L66.27,41a16.3,16.3,0,0,0-3.59-2.18,19.59,19.59,0,0,0-8-1.67c-2.57,0-5.85.46-8.23,2.11a5.89,5.89,0,0,0-2.81,5,5,5,0,0,0,1.76,3.89,14.72,14.72,0,0,0,4.66,2.46c2.77,1,8.82,2.57,11.35,3.48,3.47,1.26,6.34,2.77,8.21,5.47h0a9.73,9.73,0,0,1,1.68,5.89,10.44,10.44,0,0,1-3.17,7.4c-3.07,3-7.66,4.56-12.68,4.57a24,24,0,0,1-13.73-4.26,34.2,34.2,0,0,1-2.87-2.23l-1.08,1.46a35.1,35.1,0,0,0,2.93,2.26,25.8,25.8,0,0,0,14.75,4.58,20.28,20.28,0,0,0,11.89-3.39,12.58,12.58,0,0,0,5.77-10.34,12.13,12.13,0,0,0-2-7Z"/><path class="cls-2" d="M68.5,60.33c-1.36-1.93-3.44-3.48-7.54-5-3.19-1.15-8.06-2.28-11.35-3.48a14.21,14.21,0,0,1-5.6-3.2,6.44,6.44,0,0,1-1.73-4.6,7.37,7.37,0,0,1,3.4-6,16.08,16.08,0,0,1,9-2.36,21,21,0,0,1,8.54,1.79,18.47,18.47,0,0,1,3.84,2.33l1.08-1.46a15.58,15.58,0,0,0-1.29-.95A22.07,22.07,0,0,0,54.69,34a17.84,17.84,0,0,0-10,2.68A9.21,9.21,0,0,0,40.48,44,8.22,8.22,0,0,0,43,50.28a15.16,15.16,0,0,0,5.12,3c3.75,1.46,8.6,2.53,12.2,3.8,2.58.92,5.23,2.18,6.65,4.27h0a6.73,6.73,0,0,1,1.13,4,7.59,7.59,0,0,1-3.62,6.37,15.83,15.83,0,0,1-9.07,2.5,21,21,0,0,1-13-4.45c-.74-.56-1.31-1.06-1.74-1.43l-1.08,1.46c.42.36,1,.85,1.73,1.41a24.19,24.19,0,0,0,5.52,3.17,22.58,22.58,0,0,0,8.54,1.65,17.74,17.74,0,0,0,10.1-2.82,9.58,9.58,0,0,0,4.39-7.83,8.56,8.56,0,0,0-1.45-5.07Z"/></g></g></svg>